<svg width="51" height="52" viewBox="0 0 51 52" fill="none" xmlns="http://www.w3.org/2000/svg">
<path d="M39.2361 47.3011C39.0709 47.1693 38.8591 47.1153 38.6482 47.1465C38.1511 47.2262 37.6268 47.2648 37.0451 47.2648C34.1616 47.2648 31.4588 46.1419 29.435 44.103C29.1427 43.8085 28.6668 43.8071 28.3716 44.099C28.0768 44.3916 28.0753 44.8678 28.3676 45.1627C30.6761 47.4881 33.7578 48.7688 37.0452 48.7688C37.5839 48.7688 38.0829 48.739 38.5606 48.6785C41.8439 51.1048 46.412 50.9961 49.5492 48.4009C49.753 48.2324 49.8532 47.9688 49.8129 47.7073C49.7729 47.4458 49.5981 47.2245 49.3528 47.1249C48.0732 46.6046 46.9155 45.8824 45.9024 44.9729C50.415 40.2586 50.4563 32.7245 45.786 27.9684C45.4945 27.6717 45.0187 27.6677 44.7227 27.9588C44.4264 28.2497 44.422 28.7258 44.7131 29.0222C49.0134 33.4023 48.719 40.3955 44.3136 44.424C44.163 44.5617 44.0749 44.7544 44.0694 44.9585C44.064 45.1623 44.1414 45.3599 44.2843 45.5053C45.2515 46.4909 46.3515 47.31 47.5669 47.9507C44.9751 49.434 41.6434 49.2225 39.2361 47.3011Z" fill="#1E1E1E"/>
<path d="M1.70605 41.8901C1.66562 42.1523 1.7666 42.4159 1.97119 42.5841C4.68945 44.8246 8.04365 45.9468 11.4045 45.9464C14.5945 45.946 17.7905 44.9348 20.45 42.9083C32.8916 44.5736 43.7961 34.8649 43.7961 22.511C43.7961 11.1578 34.5641 1.92139 23.2167 1.92139C11.8635 1.92139 2.62704 11.1578 2.62704 22.511C2.62704 27.9894 4.83193 33.2625 8.70165 37.1021C6.81953 38.8836 4.57421 40.33 2.1666 41.307C1.92079 41.4069 1.74609 41.6283 1.70605 41.8901ZM10.3197 37.6209C10.4622 37.4751 10.5396 37.2783 10.5342 37.0745C10.529 36.8707 10.4413 36.6779 10.2911 36.5402C6.37626 32.9474 4.13095 27.834 4.13095 22.5109C4.13095 11.9871 12.6929 3.4252 23.2167 3.4252C33.735 3.4252 42.2921 11.9871 42.2921 22.5109C42.2921 34.1774 31.8759 43.1146 20.3516 41.3752C20.1485 41.3447 19.9345 41.4005 19.7707 41.5309C15.1795 45.192 8.70712 45.3995 3.93163 42.1734C6.32001 41.0408 8.46435 39.5134 10.3197 37.6209Z" fill="#0E73B9"/>
<path d="M30.012 29.2289V26.3489H22.252V25.2089L29.352 15.0889H31.452V25.0289H33.152V26.3489H31.452V29.2289H30.012ZM23.972 25.0289H30.012V16.3889L23.972 25.0289Z" fill="#0E73B9"/>
<path d="M12.3398 29.2292V28.0292L16.5398 24.3292C16.9132 24.0092 17.3132 23.6625 17.7398 23.2892C18.1798 22.9025 18.5932 22.4892 18.9798 22.0492C19.3665 21.6092 19.6865 21.1425 19.9398 20.6492C20.1932 20.1559 20.3198 19.6359 20.3198 19.0892C20.3198 18.1559 20.0398 17.4492 19.4798 16.9692C18.9198 16.4759 18.1865 16.2292 17.2798 16.2292C16.5998 16.2292 15.9865 16.3692 15.4398 16.6492C14.8932 16.9159 14.5198 17.3359 14.3198 17.9092H12.7598C12.9198 17.2292 13.2265 16.6759 13.6798 16.2492C14.1332 15.8092 14.6798 15.4825 15.3198 15.2692C15.9598 15.0425 16.6398 14.9292 17.3598 14.9292C18.2265 14.9292 18.9932 15.0892 19.6598 15.4092C20.3265 15.7159 20.8465 16.1692 21.2198 16.7692C21.5932 17.3559 21.7798 18.0892 21.7798 18.9692C21.7798 19.8225 21.6132 20.5759 21.2798 21.2292C20.9465 21.8825 20.5132 22.4759 19.9798 23.0092C19.4465 23.5425 18.8798 24.0759 18.2798 24.6092L14.4398 27.9292H21.9398V29.2292H12.3398Z" fill="#0E73B9"/>
</svg>
